<?xml version="1.0" encoding="utf-8"?>
<!-- Generator: Adobe Illustrator 23.0.0, SVG Export Plug-In . SVG Version: 6.00 Build 0)  -->
<svg version="1.1" id="Capa_1" xmlns="http://www.w3.org/2000/svg" xmlns:xlink="http://www.w3.org/1999/xlink" x="0px" y="0px"
	 viewBox="0 0 512 338" style="enable-background:new 0 0 512 338;" xml:space="preserve">
<g>
	<g>
		<polygon points="448,142 448,78 416,78 416,142 352,142 352,174 416,174 416,238 448,238 448,174 512,174 512,142 		"/>
	</g>
</g>
<g>
	<g>
		<path d="M160,142v64h90.5c-13.2,37.2-48.8,64-90.5,64c-52.9,0-96-43.1-96-96s43.1-96,96-96c22.9,0,45,8.2,62.2,23.2l42-48.3
			C235.4,27.8,198.4,14,160,14C71.8,14,0,85.8,0,174s71.8,160,160,160s160-71.8,160-160v-32H160z"/>
	</g>
</g>
</svg>
