<?xml version="1.0" encoding="utf-8"?>
<!-- Generator: Adobe Illustrator 23.0.0, SVG Export Plug-In . SVG Version: 6.00 Build 0)  -->
<svg version="1.1" id="Слой_1" xmlns="http://www.w3.org/2000/svg" xmlns:xlink="http://www.w3.org/1999/xlink" x="0px" y="0px"
	 viewBox="0 0 58 48" style="enable-background:new 0 0 58 48;" xml:space="preserve">
<style type="text/css">
	.st0{fill:#D4AB82;}
	.st1{fill:#F7F7F7;}
</style>
<path class="st0" d="M0,0l48,0c5.5,0,10,4.5,10,10v28c0,5.5-4.5,10-10,10H0L0,0z"/>
<path class="st1" d="M24.3,17.4c0,0.2,0.1,0.5,0.3,0.6l6,6l-6,6c-0.3,0.3-0.3,0.9,0,1.2l0.5,0.5c0.1,0.2,0.4,0.3,0.6,0.3
	s0.4-0.1,0.6-0.3l7.1-7.1c0.2-0.1,0.3-0.4,0.3-0.6s-0.1-0.4-0.3-0.6l-7.1-7.1c-0.1-0.2-0.4-0.3-0.6-0.3s-0.4,0.1-0.6,0.3l-0.5,0.5
	C24.4,16.9,24.3,17.2,24.3,17.4"/>
</svg>
