<?xml version="1.0" encoding="utf-8"?>
<!-- Generator: Adobe Illustrator 23.0.0, SVG Export Plug-In . SVG Version: 6.00 Build 0)  -->
<svg version="1.1" id="Слой_1" xmlns="http://www.w3.org/2000/svg" xmlns:xlink="http://www.w3.org/1999/xlink" x="0px" y="0px"
	 viewBox="0 0 58 48" style="enable-background:new 0 0 58 48;" xml:space="preserve">
<style type="text/css">
	.st0{fill:#F7F7F7;}
	.st1{fill:#D0A982;}
</style>
<path class="st0" d="M58,48H10C4.5,48,0,43.5,0,38V10C0,4.5,4.5,0,10,0h48V48z"/>
<path class="st1" d="M33.7,17.4c0-0.2-0.1-0.5-0.3-0.6l-0.5-0.5c-0.2-0.2-0.4-0.3-0.6-0.3s-0.5,0.1-0.6,0.3l-7.1,7.1
	c-0.2,0.2-0.3,0.4-0.3,0.6s0.1,0.5,0.3,0.6l7.1,7.1c0.2,0.2,0.4,0.3,0.6,0.3s0.5-0.1,0.6-0.3l0.5-0.5c0.3-0.3,0.3-0.9,0-1.2l-6-6
	l6-6C33.6,17.9,33.7,17.6,33.7,17.4"/>
</svg>
