<?xml version="1.0" encoding="iso-8859-1"?>
<!-- Generator: Adobe Illustrator 23.0.0, SVG Export Plug-In . SVG Version: 6.00 Build 0)  -->
<svg version="1.1" id="&#x421;&#x43B;&#x43E;&#x439;_1"
	 xmlns="http://www.w3.org/2000/svg" xmlns:xlink="http://www.w3.org/1999/xlink" x="0px" y="0px" viewBox="0 0 410 410"
	 style="enable-background:new 0 0 410 410;" xml:space="preserve">
<g>
	<linearGradient id="SVGID_1_" gradientUnits="userSpaceOnUse" x1="0.0023" y1="205.104" x2="409.602" y2="205.104">
		<stop  offset="0" style="stop-color:#DE8244"/>
		<stop  offset="1" style="stop-color:#F1C062"/>
	</linearGradient>
	<path style="fill-rule:evenodd;clip-rule:evenodd;fill:url(#SVGID_1_);" d="M256.117,391.377
		c-24.187,19.972-58.785,22.41-95.254,10.171c-35.23-11.828-72.445-37.484-103.359-74.199c-0.231-0.242-0.449-0.5-0.645-0.765
		C26.055,289.74,7.242,248.627,1.723,211.892c-5.746-38.254,2.808-72.078,27.031-92.406l0.16-0.129
		c6.008-4.883,15.078-3.687,24.918,2.219c7.504,4.5,16.074,11.941,23.977,21.289c0.226,0.238,0.433,0.484,0.621,0.738
		c7.672,9.211,15.941,21.684,21.547,32.57c7.125,13.825,9.742,26.477,3.16,32c-7.477,6.274-11.711,15.063-12.508,24.164
		c-0.797,9.114,1.851,18.516,8.137,26.008l33.242,39.61c6.273,7.484,15.062,11.718,24.164,12.515
		c9.113,0.797,18.516-1.855,26.008-8.14c6.554-5.5,18.55-0.719,30.922,8.691c17.234,13.109,37.843,34.152,45.796,54.918
		c4.012,10.477,3.711,19.453-1.796,24.594C256.793,390.845,256.465,391.127,256.117,391.377L256.117,391.377z M299.992,339.478
		c-3.922,1.992-5.449,6.856-3.414,10.867c2.039,4.012,6.867,5.653,10.789,3.66c25.86-13.117,48.258-32.097,65.442-55.191
		c23.113-31.059,36.793-69.531,36.793-111.172c0-51.484-20.872-98.094-54.61-131.832C321.254,22.068,274.641,1.201,223.16,1.201
		c-35.812,0-69.301,10.129-97.758,27.687c-20.05,12.375-37.636,28.489-51.73,47.375c-5.984,8.004,6.937,17.871,13.023,9.723
		c12.875-17.25,28.938-31.957,47.25-43.262c25.907-15.976,56.461-25.199,89.215-25.199c46.977,0,89.504,19.039,120.289,49.824
		s49.824,73.317,49.824,120.293c0,38.051-12.468,73.168-33.535,101.481c-15.676,21.066-36.121,38.382-59.746,50.351V339.478z
		 M274.207,350.482c4.414,0,8,3.582,8,8s-3.586,8-8,8c-4.418,0-8-3.582-8-8S269.789,350.482,274.207,350.482L274.207,350.482z
		 M63.535,99.916c-4.418,0-8,3.582-8,8c0,4.418,3.582,8,8,8c4.414,0,8-3.582,8-8C71.535,103.498,67.949,99.916,63.535,99.916
		L63.535,99.916z M334.781,231.791c0,4.507-3.652,8.164-8.164,8.164c-4.504,0-8.16-3.657-8.16-8.164v-35.989h-42.008v-0.035
		c-1.832,0.004-3.676-0.613-5.195-1.875c-3.449-2.871-3.922-7.996-1.051-11.449l49.692-59.629c1.472-2.141,3.933-3.539,6.722-3.539
		c4.512,0,8.164,3.656,8.164,8.164v52.039h9.899c4.508,0,8.164,3.656,8.164,8.164s-3.656,8.16-8.164,8.16h-9.899V231.791z
		 M318.457,179.482h-24.621l24.621-29.551V179.482z M200.324,159.548c0-6.613,2.68-12.601,7.012-16.937
		c4.332-4.328,10.32-7.012,16.934-7.012c6.613,0,12.601,2.684,16.933,7.012c4.336,4.336,7.012,10.324,7.012,16.937
		c0,6.317-2.414,10.918-6.449,14.75c-4.813,4.567-12.145,8.497-20.618,12.719c-20.507,10.235-36.179,40.953-36.222,41.043
		c-2.059,3.996-0.492,8.91,3.504,10.969c1.199,0.613,2.476,0.91,3.734,0.906v0.02h64.215c4.504,0,8.16-3.657,8.16-8.164
		c0-4.508-3.656-8.164-8.16-8.164h-49.828c5.363-7.946,13.25-17.704,21.871-22.004c9.644-4.809,18.109-9.403,24.566-15.528
		c7.227-6.863,11.551-15.136,11.551-26.547c0-11.121-4.504-21.187-11.797-28.476c-7.285-7.289-17.351-11.797-28.472-11.797
		c-11.122,0-21.184,4.508-28.473,11.797C188.508,138.361,184,148.427,184,159.548c0,4.504,3.652,8.161,8.164,8.161
		C196.668,167.709,200.324,164.052,200.324,159.548L200.324,159.548z M166.027,386.115c31.325,10.515,60.481,8.824,80.039-7.567
		l0.036-0.031c0.078-0.062-0.86-2.644-2.442-6.773c-6.758-17.645-25.898-36.762-40.379-47.778c-6.453-4.91-12.156-7.91-12.617-7.527
		c-10.945,9.184-22.66,11.449-35.894,10.289c-13.25-1.16-26.071-7.355-35.262-18.312l-33.242-39.614
		c-9.184-10.945-13.055-24.632-11.899-37.867c1.16-13.246,6.363-25.215,17.321-34.406c-4.446-13.777-22.852-39.012-26.059-42.828
		c-6.844-8.153-14.043-14.496-20.152-18.16c-3.625-2.176-5.969-3.52-6.243-3.555c-0.105,0.086-0.211,0.172-0.32,0.254
		c-19.305,16.433-25.945,44.715-21.062,77.23c5.121,34.075,22.796,72.446,51.82,107.032l0.004,0.003
		C98.695,351.095,133.391,375.158,166.027,386.115L166.027,386.115z M166.027,386.115"/>
</g>
</svg>
