<?xml version="1.0" encoding="utf-8"?>
<!-- Generator: Adobe Illustrator 23.0.0, SVG Export Plug-In . SVG Version: 6.00 Build 0)  -->
<svg version="1.1" id="Layer_1" xmlns="http://www.w3.org/2000/svg" xmlns:xlink="http://www.w3.org/1999/xlink" x="0px" y="0px"
	 viewBox="0 0 118.82 51.1" style="enable-background:new 0 0 118.82 51.1;" xml:space="preserve">
<style type="text/css">
	.st0{fill:#F1BF61;}
</style>
<path class="st0" d="M81.24,22.56h5.54l1.96-5.58c4.03-0.79,7.5-1.95,10.42-3.48c4.37-2.27,6.56-4.98,6.56-8.15
	c0-2.13-0.9-3.61-2.71-4.46C101.73,0.3,99.89,0,97.47,0H12.96l-0.87,2.33H4.5H3.81L0,8.56h25.93c3.87,0,5.81,4.27,5.81,6.81
	c0,1.8-0.79,3.38-2.37,4.75c-0.94,0.83-2.42,1.72-4.45,2.7c-1.47,0.69-2.37,1.4-2.7,2.13c-0.03,0.1-0.05,0.26-0.05,0.49
	c0,0.46,0.33,1.2,0.99,2.21c0.66,1.01,0.99,1.88,0.99,2.61c0,2.28-1.48,3.92-4.43,4.92c-2,0.66-4.44,0.99-7.32,0.99h-1.26
	l7.59-21.42h-8.9L0.91,40.13h12.86c4.52,0,8.47-0.63,11.87-1.88c4.75-1.76,7.12-4.48,7.12-8.16c0-1.78-0.63-3.77-1.9-5.96
	c3.13-1.53,5.46-2.93,7-4.2c2.56-2.11,3.83-7.38,3.83-9.8c0-0.55-0.06-1.07-0.14-1.56h17.08c3.87,0,5.81,4.27,5.81,6.81
	c0,1.8-0.79,3.38-2.37,4.75c-0.94,0.83-2.42,1.72-4.45,2.7c-1.47,0.69-2.37,1.4-2.7,2.13c-0.03,0.1-0.05,0.26-0.05,0.49
	c0,0.46,0.33,1.2,0.99,2.21c0.66,1.01,0.99,1.88,0.99,2.61c0,2.28-1.48,3.92-4.43,4.92c-2,0.66-4.44,0.99-7.32,0.99h-1.26
	l7.59-21.42h-8.9L33.6,40.13h12.86c4.52,0,8.47-0.63,11.87-1.88c4.75-1.76,7.12-4.48,7.12-8.16c0-1.78-0.63-3.77-1.9-5.96
	c3.13-1.53,5.47-2.93,7-4.2c2.56-2.11,3.83-7.38,3.83-9.8c0-2.79-1.08-4.82-3.21-6.08h23.67c1.34,0,2.26,0.11,2.77,0.34
	c0.85,0.38,1.26,1.16,1.2,2.36c-0.09,1.86-1.25,3.49-3.48,4.89c-1.6,0.99-3.44,1.73-5.52,2.2l2.76-7.71h-7.8l-2.16,5.19h-5.55
	l-4.63,13.01h-4.65c-0.26,0.61-0.4,1.2-0.4,1.78c0,0.94,0.33,1.77,0.99,2.5c0.58,0.66,1.29,1.11,2.13,1.34l-6.26,17.68
	c-0.12,0.3-0.17,0.58-0.17,0.87c0,0.71,0.26,1.32,0.79,1.83c0.53,0.51,1.13,0.77,1.81,0.79c3.54,0.1,7.25-1.33,11.1-4.28
	c4.29-3.26,6.51-6.98,6.68-11.15c0.13-3.53-0.56-5.99-2.08-7.39h26.45c3.73,0,5.85-1.32,6.38-3.96h-34.7L81.24,22.56z M77.17,39.48
	c-0.43,1.26-1.36,2.7-2.79,4.32c-1.47,1.68-2.87,2.87-4.2,3.56c2.87-6.33,4.98-11.08,6.33-14.24c0.87,0.68,1.31,1.69,1.31,3.04
	C77.81,37.11,77.6,38.22,77.17,39.48z M108.18,16.6c-1.26,0-2.26,0.26-3.02,0.78c-0.71,0.49-1.14,1.17-1.29,2.03
	c-0.03,0.15-0.04,0.31-0.04,0.46c0,0.45,0.12,0.84,0.33,1.18h-1.92l1.56-4.46h-4.74l0.72-2.09H98.4c-0.7,0-1.31,0.15-1.82,0.45
	c-0.61,0.36-0.92,0.87-0.92,1.53c0,0.36,0.11,0.68,0.33,0.96c0.22,0.28,0.51,0.46,0.86,0.54l-0.56,1.86
	c0.44-0.06,0.95-0.29,1.41-0.58c0.57-0.35,0.92-1.29,0.92-1.29h1.83l-0.97,2.79c-0.07,0.21-0.11,0.41-0.11,0.59
	c0,0.72,0.43,1.08,1.3,1.08h3.28c0.42,0,0.83-0.12,1.22-0.36c0.02-0.01,0.04-0.03,0.06-0.05c0.69,0.36,1.57,0.55,2.68,0.54
	c1.16-0.01,2.1-0.27,2.83-0.79c0.76-0.54,1.18-1.29,1.26-2.25c0.02-0.25-0.03-0.54-0.15-0.87c-0.12-0.33-0.27-0.56-0.46-0.69h5.37
	c1.14,0,1.83-0.46,2.06-1.37H108.18z M108.34,21.22c-0.08,0.01-0.17,0.01-0.28,0.01c-0.91,0-1.37-0.25-1.37-0.74
	c0-0.1,0.02-0.21,0.06-0.33l0.77-2.19h1.96L108.34,21.22z"/>
</svg>
