<?xml version="1.0" encoding="iso-8859-1"?>
<!-- Generator: Adobe Illustrator 23.0.0, SVG Export Plug-In . SVG Version: 6.00 Build 0)  -->
<svg version="1.1" id="&#x421;&#x43B;&#x43E;&#x439;_1"
	 xmlns="http://www.w3.org/2000/svg" xmlns:xlink="http://www.w3.org/1999/xlink" x="0px" y="0px" viewBox="0 0 512 414.176"
	 style="enable-background:new 0 0 512 414.176;" xml:space="preserve">
<g>
	<linearGradient id="SVGID_1_" gradientUnits="userSpaceOnUse" x1="176.445" y1="112.426" x2="512" y2="112.426">
		<stop  offset="0" style="stop-color:#DE8244"/>
		<stop  offset="1" style="stop-color:#F1C062"/>
	</linearGradient>
	<path style="fill:url(#SVGID_1_);" d="M502,0H186.445c-5.519,0-10,4.477-10,10v204.852c0,5.519,4.481,10,10,10H502
		c5.523,0,10-4.481,10-10V10C512,4.477,507.523,0,502,0L502,0z M492,20v42.926c-21.695-4.09-38.84-21.235-42.93-42.926H492z
		 M492,83.18v58.488c-32.742,4.449-58.734,30.441-63.184,63.18H259.633c-4.453-32.739-30.445-58.731-63.188-63.18V83.18
		c32.743-4.45,58.735-30.438,63.188-63.18h169.183C433.266,52.742,459.258,78.73,492,83.18L492,83.18z M196.445,20h42.93
		c-4.09,21.691-21.234,38.836-42.93,42.926V20z M196.445,204.848v-42.922c21.696,4.09,38.84,21.23,42.93,42.922H196.445z
		 M492,204.848h-42.93c4.09-21.692,21.235-38.832,42.93-42.922V204.848z M492,204.848"/>
	<linearGradient id="SVGID_2_" gradientUnits="userSpaceOnUse" x1="259.766" y1="112.424" x2="428.684" y2="112.424">
		<stop  offset="0" style="stop-color:#DE8244"/>
		<stop  offset="1" style="stop-color:#F1C062"/>
	</linearGradient>
	<path style="fill:url(#SVGID_2_);" d="M344.223,196.879c-46.571,0-84.457-37.887-84.457-84.453
		c0-46.571,37.886-84.457,84.457-84.457c46.574,0,84.461,37.886,84.461,84.457C428.684,158.992,390.793,196.879,344.223,196.879
		L344.223,196.879z M344.223,47.969c-35.543,0-64.457,28.914-64.457,64.457c0,35.539,28.914,64.453,64.457,64.453
		s64.461-28.914,64.461-64.453C408.684,76.887,379.766,47.969,344.223,47.969L344.223,47.969z M344.223,47.969"/>
	<linearGradient id="SVGID_3_" gradientUnits="userSpaceOnUse" x1="297.664" y1="112.4235" x2="390.785" y2="112.4235">
		<stop  offset="0" style="stop-color:#DE8244"/>
		<stop  offset="1" style="stop-color:#F1C062"/>
	</linearGradient>
	<path style="fill:url(#SVGID_3_);" d="M344.223,158.984c-25.672,0-46.559-20.886-46.559-46.558
		c0-25.676,20.887-46.563,46.559-46.563c25.675,0,46.562,20.887,46.562,46.563c0,5.519-4.476,10-10,10c-5.523,0-10-4.481-10-10
		c0-14.649-11.914-26.563-26.562-26.563c-14.645,0-26.559,11.918-26.559,26.563c0,14.64,11.914,26.558,26.559,26.558
		c5.523,0,10,4.477,10,10C354.223,154.508,349.746,158.984,344.223,158.984L344.223,158.984z M344.223,158.984"/>
	<linearGradient id="SVGID_4_" gradientUnits="userSpaceOnUse" x1="131.07" y1="335.3528" x2="151.07" y2="335.3528">
		<stop  offset="0" style="stop-color:#DE8244"/>
		<stop  offset="1" style="stop-color:#F1C062"/>
	</linearGradient>
	<path style="fill:url(#SVGID_4_);" d="M141.07,345.355c-0.648,0-1.308-0.07-1.949-0.199c-0.641-0.129-1.269-0.32-1.871-0.57
		c-0.602-0.25-1.191-0.559-1.73-0.918c-0.551-0.359-1.059-0.781-1.52-1.242c-0.461-0.457-0.879-0.969-1.238-1.52
		c-0.364-0.539-0.672-1.129-0.922-1.73c-0.25-0.598-0.442-1.231-0.57-1.867c-0.129-0.641-0.2-1.301-0.2-1.954
		c0-0.648,0.071-1.308,0.2-1.957c0.128-0.632,0.32-1.261,0.57-1.871c0.25-0.601,0.558-1.179,0.922-1.718
		c0.359-0.551,0.777-1.063,1.238-1.524c0.461-0.457,0.969-0.879,1.52-1.25c0.539-0.359,1.128-0.668,1.73-0.918
		c0.602-0.25,1.23-0.441,1.871-0.57c1.289-0.262,2.617-0.262,3.91,0c0.641,0.129,1.258,0.32,1.867,0.57
		c0.602,0.25,1.18,0.559,1.723,0.918c0.551,0.371,1.059,0.793,1.52,1.25c0.468,0.461,0.879,0.973,1.25,1.524
		c0.359,0.539,0.671,1.117,0.921,1.718c0.25,0.61,0.438,1.239,0.571,1.871c0.129,0.649,0.187,1.309,0.187,1.957
		c0,0.653-0.058,1.313-0.187,1.954c-0.133,0.636-0.321,1.269-0.571,1.867c-0.25,0.601-0.562,1.191-0.921,1.73
		c-0.371,0.551-0.782,1.063-1.25,1.52c-0.461,0.461-0.969,0.883-1.52,1.242c-0.543,0.359-1.121,0.668-1.723,0.918
		c-0.609,0.25-1.226,0.441-1.867,0.57C142.379,345.285,141.73,345.355,141.07,345.355L141.07,345.355z M141.07,345.355"/>
	<linearGradient id="SVGID_5_" gradientUnits="userSpaceOnUse" x1="0" y1="319.9925" x2="466.5264" y2="319.9925">
		<stop  offset="0" style="stop-color:#DE8244"/>
		<stop  offset="1" style="stop-color:#F1C062"/>
	</linearGradient>
	<path style="fill:url(#SVGID_5_);" d="M461.773,263.977c-11.164-19.438-36.085-26.207-55.703-15.2l-73.707,35.785
		c-6.621-15.914-22.332-27.136-40.617-27.136h-80.031c-13.883-19.633-36.735-31.617-60.949-31.617c-0.852,0-1.7,0.015-2.543,0.043
		c-30.524,1.027-56.809,21.992-65.352,51.554H79.27v-6.043c0-5.523-4.477-10-10-10H10c-5.523,0-10,4.477-10,10v121.199
		c0,5.524,4.477,10,10,10h59.27c5.523,0,10-4.476,10-10v-7.332c38.253,7.243,156.234,28.946,196.23,28.946
		c21.574,0,56.262-15.711,106.039-48.035c35.688-23.168,66.055-46.672,66.356-46.907c0.332-0.257,0.644-0.535,0.941-0.828
		C466.395,300.852,471.234,280.508,461.773,263.977L461.773,263.977z M59.27,382.562H20V281.363h39.27V382.562z M435.121,303.828
		c-32.996,25.527-124.437,90.348-159.621,90.348c-39.152,0-163.262-23.051-196.23-29.309v-67.461h11.468
		c4.676,0,8.731-3.242,9.754-7.804l0.797-3.543c5.156-22.911,24.731-39.45,47.602-40.219c0.621-0.02,1.246-0.031,1.875-0.031
		c19.144,0,37.132,10.242,46.933,26.726c1.805,3.031,5.071,4.891,8.598,4.891h85.449c13.215,0,23.965,10.75,23.965,23.965
		c0,13.211-10.75,23.961-23.965,23.961H178.367c-5.523,0-10,4.476-10,10c0,5.523,4.477,10,10,10h113.379
		c22.942,0,41.832-17.661,43.797-40.098l79.547-38.625c0.207-0.098,0.406-0.203,0.601-0.317c10.11-5.789,23-2.367,28.731,7.61
		C451.016,285.441,440.469,298.371,435.121,303.828L435.121,303.828z M435.121,303.828"/>
</g>
</svg>
