<?xml version="1.0" encoding="iso-8859-1"?>
<!-- Generator: Adobe Illustrator 23.0.0, SVG Export Plug-In . SVG Version: 6.00 Build 0)  -->
<svg version="1.1" id="&#x421;&#x43B;&#x43E;&#x439;_1"
	 xmlns="http://www.w3.org/2000/svg" xmlns:xlink="http://www.w3.org/1999/xlink" x="0px" y="0px" viewBox="0 0 10.947 13.467"
	 style="enable-background:new 0 0 10.947 13.467;" xml:space="preserve">
<g>
	<g>
		<linearGradient id="SVGID_1_" gradientUnits="userSpaceOnUse" x1="0.5" y1="6.7334" x2="10.4465" y2="6.7334">
			<stop  offset="0" style="stop-color:#DE8244"/>
			<stop  offset="1" style="stop-color:#F1BF61"/>
		</linearGradient>
		<linearGradient id="SVGID_2_" gradientUnits="userSpaceOnUse" x1="-9.094947e-13" y1="6.7334" x2="10.9465" y2="6.7334">
			<stop  offset="0" style="stop-color:#DE8244"/>
			<stop  offset="1" style="stop-color:#F1BF61"/>
		</linearGradient>
		<path style="fill:url(#SVGID_1_);stroke:url(#SVGID_2_);stroke-miterlimit:10;" d="M5.296,0.503
			C2.819,0.59,0.761,2.523,0.524,4.989C0.475,5.483,0.503,5.961,0.59,6.418c0,0,0.008,0.054,0.033,0.156
			C0.7,6.917,0.815,7.249,0.958,7.561c0.498,1.181,1.651,3.157,4.238,5.306C5.355,13,5.587,13,5.748,12.867
			c2.587-2.147,3.74-4.123,4.241-5.309c0.146-0.312,0.258-0.642,0.335-0.987c0.023-0.1,0.033-0.156,0.033-0.156
			c0.059-0.307,0.089-0.621,0.089-0.943C10.447,2.666,8.123,0.404,5.296,0.503L5.296,0.503z M5.472,7.947
			c-1.334,0-2.416-1.081-2.416-2.415c0-1.334,1.081-2.416,2.416-2.416c1.334,0,2.416,1.081,2.416,2.416
			C7.888,6.865,6.807,7.947,5.472,7.947L5.472,7.947z M5.472,7.947"/>
	</g>
</g>
</svg>
