<?xml version="1.0" encoding="iso-8859-1"?>
<!-- Generator: Adobe Illustrator 23.0.0, SVG Export Plug-In . SVG Version: 6.00 Build 0)  -->
<svg version="1.1" id="&#x421;&#x43B;&#x43E;&#x439;_1"
	 xmlns="http://www.w3.org/2000/svg" xmlns:xlink="http://www.w3.org/1999/xlink" x="0px" y="0px" viewBox="0 0 409.602 409.602"
	 style="enable-background:new 0 0 409.602 409.602;" xml:space="preserve">
<g>
	<linearGradient id="SVGID_1_" gradientUnits="userSpaceOnUse" x1="0" y1="118.2305" x2="236.461" y2="118.2305">
		<stop  offset="0" style="stop-color:#DE8244"/>
		<stop  offset="1" style="stop-color:#F1C062"/>
	</linearGradient>
	<path style="fill:url(#SVGID_1_);" d="M236.461,0H0v236.461h236.461V0z M224.438,224.437H12.023V12.023h212.415V224.437z
		 M224.438,224.437"/>
	<linearGradient id="SVGID_2_" gradientUnits="userSpaceOnUse" x1="173.137" y1="291.3695" x2="409.602" y2="291.3695">
		<stop  offset="0" style="stop-color:#DE8244"/>
		<stop  offset="1" style="stop-color:#F1C062"/>
	</linearGradient>
	<path style="fill:url(#SVGID_2_);" d="M250.492,173.137v12.027h147.082v212.41h-212.41V250.492h-12.027v159.11h236.465V173.137
		H250.492z M250.492,173.137"/>
	<linearGradient id="SVGID_3_" gradientUnits="userSpaceOnUse" x1="48.094" y1="119" x2="188.367" y2="119">
		<stop  offset="0" style="stop-color:#DE8244"/>
		<stop  offset="1" style="stop-color:#F1C062"/>
	</linearGradient>
	<path style="fill:url(#SVGID_3_);" d="M118.227,133.289c-4.571-5.93-8.25-12.445-10.989-19.453l-2.191-5.613L71.492,121.41
		l2.196,5.598c3.597,9.16,8.414,17.91,14.332,26.008c0.746,1.019,1.523,2.043,2.332,3.066c-3.579,1.754-7.293,3.246-11.106,4.457
		l-23.504,7.469l10.922,34.379l23.508-7.469c9.953-3.16,19.375-7.621,28.058-13.27c8.688,5.649,18.11,10.106,28.059,13.27
		l23.516,7.473l10.914-34.383l-23.508-7.465c-3.805-1.207-7.516-2.703-11.098-4.461c0.805-1.023,1.582-2.047,2.328-3.07
		c11.875-16.231,19.258-35.145,21.524-55h18.402V61.945h-49.695V35.609H99.395v26.332H48.094v36.071h85.468
		C131.41,110.832,126.113,123.008,118.227,133.289L118.227,133.289z M60.117,85.988V73.965h51.301V47.633h15.23v26.332h49.696
		v12.023h-17.508l-0.367,5.625c-1.27,19.614-8.09,38.391-19.731,54.301c-1.918,2.625-4.082,5.289-6.426,7.914l-4.812,5.399
		l6.18,3.746c6.238,3.781,12.929,6.816,19.89,9.031l12.047,3.824l-3.637,11.461l-12.046-3.828
		c-10.122-3.219-19.622-7.922-28.243-13.988l-3.461-2.434l-3.457,2.434c-8.621,6.066-18.125,10.769-28.246,13.988l-12.047,3.828
		l-3.64-11.461L82.891,172c6.976-2.219,13.664-5.254,19.89-9.023l6.184-3.75l-4.817-5.395c-2.339-2.625-4.503-5.289-6.421-7.914
		c-4.102-5.613-7.614-11.57-10.485-17.777l11.172-4.391c3.922,8.375,9.082,16.07,15.391,22.934l4.422,4.824l4.429-4.824
		c13.614-14.817,22.032-34.063,23.707-54.188l0.539-6.508H60.117z M60.117,85.988"/>
	<linearGradient id="SVGID_4_" gradientUnits="userSpaceOnUse" x1="239.668" y1="300.1855" x2="343.07" y2="300.1855">
		<stop  offset="0" style="stop-color:#DE8244"/>
		<stop  offset="1" style="stop-color:#F1C062"/>
	</linearGradient>
	<path style="fill:url(#SVGID_4_);" d="M278.945,347.078h24.848v24.848h39.277v-91.778c0-28.507-23.191-51.703-51.703-51.703
		c-28.504,0-51.699,23.196-51.699,51.703v91.778h39.277V347.078z M266.922,359.902h-15.231v-79.754
		c0-21.878,17.801-39.679,39.676-39.679c21.879,0,39.68,17.801,39.68,39.679v79.754h-15.231v-24.847h-48.894V359.902z
		 M266.922,359.902"/>
	<linearGradient id="SVGID_5_" gradientUnits="userSpaceOnUse" x1="266.922" y1="286.961" x2="315.816" y2="286.961">
		<stop  offset="0" style="stop-color:#DE8244"/>
		<stop  offset="1" style="stop-color:#F1C062"/>
	</linearGradient>
	<path style="fill:url(#SVGID_5_);" d="M315.816,280.148c0-13.48-10.964-24.449-24.449-24.449c-13.48,0-24.445,10.969-24.445,24.449
		v38.075h48.894V280.148z M303.793,306.195h-24.848v-26.047c0-6.851,5.575-12.425,12.422-12.425c6.852,0,12.426,5.574,12.426,12.425
		V306.195z M303.793,306.195"/>
	<linearGradient id="SVGID_6_" gradientUnits="userSpaceOnUse" x1="284.957" y1="93.424" x2="385.395" y2="93.424">
		<stop  offset="0" style="stop-color:#DE8244"/>
		<stop  offset="1" style="stop-color:#F1C062"/>
	</linearGradient>
	<path style="fill:url(#SVGID_6_);" d="M343.07,69.336v63.234l-21.8-21.797l-8.5,8.5l36.312,36.313l36.313-36.313l-8.5-8.5
		l-21.801,21.797V69.336c0-20.996-17.082-38.074-38.074-38.074h-32.063v12.023h32.063C331.383,43.285,343.07,54.973,343.07,69.336
		L343.07,69.336z M343.07,69.336"/>
	<linearGradient id="SVGID_7_" gradientUnits="userSpaceOnUse" x1="260.91" y1="37.2735" x2="272.933" y2="37.2735">
		<stop  offset="0" style="stop-color:#DE8244"/>
		<stop  offset="1" style="stop-color:#F1C062"/>
	</linearGradient>
	<rect x="260.91" y="31.262" style="fill:url(#SVGID_7_);" width="12.023" height="12.023"/>
	<linearGradient id="SVGID_8_" gradientUnits="userSpaceOnUse" x1="24.207" y1="316.174" x2="124.645" y2="316.174">
		<stop  offset="0" style="stop-color:#DE8244"/>
		<stop  offset="1" style="stop-color:#F1C062"/>
	</linearGradient>
	<path style="fill:url(#SVGID_8_);" d="M66.531,340.266v-63.239l21.801,21.801l8.5-8.504L60.52,254.012l-36.313,36.312l8.5,8.504
		l21.801-21.801v63.239c0,20.992,17.078,38.07,38.074,38.07h32.063v-12.02H92.582C78.215,366.316,66.531,354.629,66.531,340.266
		L66.531,340.266z M66.531,340.266"/>
	<linearGradient id="SVGID_9_" gradientUnits="userSpaceOnUse" x1="136.664" y1="372.326" x2="148.691" y2="372.326">
		<stop  offset="0" style="stop-color:#DE8244"/>
		<stop  offset="1" style="stop-color:#F1C062"/>
	</linearGradient>
	<rect x="136.664" y="366.316" style="fill:url(#SVGID_9_);" width="12.027" height="12.02"/>
	<linearGradient id="SVGID_10_" gradientUnits="userSpaceOnUse" x1="179.148" y1="30.862" x2="211.21" y2="30.862">
		<stop  offset="0" style="stop-color:#DE8244"/>
		<stop  offset="1" style="stop-color:#F1C062"/>
	</linearGradient>
	<rect x="179.148" y="24.852" style="fill:url(#SVGID_10_);" width="32.062" height="12.02"/>
	<linearGradient id="SVGID_11_" gradientUnits="userSpaceOnUse" x1="155.102" y1="30.862" x2="167.125" y2="30.862">
		<stop  offset="0" style="stop-color:#DE8244"/>
		<stop  offset="1" style="stop-color:#F1C062"/>
	</linearGradient>
	<rect x="155.102" y="24.852" style="fill:url(#SVGID_11_);" width="12.023" height="12.02"/>
	<linearGradient id="SVGID_12_" gradientUnits="userSpaceOnUse" x1="347.477" y1="216.221" x2="385.555" y2="216.221">
		<stop  offset="0" style="stop-color:#DE8244"/>
		<stop  offset="1" style="stop-color:#F1C062"/>
	</linearGradient>
	<path style="fill:url(#SVGID_12_);" d="M385.555,235.258v-38.074h-38.078v12.027h26.05v26.047H385.555z M385.555,235.258"/>
</g>
</svg>
