<svg xmlns="http://www.w3.org/2000/svg" viewBox="0 0 410 410">
    <linearGradient id="a" gradientUnits="userSpaceOnUse" x1=".002" y1="205.104" x2="409.602" y2="205.104">
        <stop offset="0" stop-color="#de8244"/>
        <stop offset="1" stop-color="#f1c062"/>
    </linearGradient>
    <path d="M256.117 391.377c-24.187 19.972-58.785 22.41-95.254 10.171-35.23-11.828-72.445-37.484-103.359-74.199a8.034 8.034 0 0 1-.645-.765C26.055 289.74 7.242 248.627 1.723 211.892c-5.746-38.254 2.808-72.078 27.031-92.406l.16-.129c6.008-4.883 15.078-3.687 24.918 2.219 7.504 4.5 16.074 11.941 23.977 21.289.226.238.433.484.621.738 7.672 9.211 15.941 21.684 21.547 32.57 7.125 13.825 9.742 26.477 3.16 32-7.477 6.274-11.711 15.063-12.508 24.164-.797 9.114 1.851 18.516 8.137 26.008l33.242 39.61c6.273 7.484 15.062 11.718 24.164 12.515 9.113.797 18.516-1.855 26.008-8.14 6.554-5.5 18.55-.719 30.922 8.691 17.234 13.109 37.843 34.152 45.796 54.918 4.012 10.477 3.711 19.453-1.796 24.594a7.754 7.754 0 0 1-.985.844zm43.875-51.899c-3.922 1.992-5.449 6.856-3.414 10.867 2.039 4.012 6.867 5.653 10.789 3.66 25.86-13.117 48.258-32.097 65.442-55.191 23.113-31.059 36.793-69.531 36.793-111.172 0-51.484-20.872-98.094-54.61-131.832C321.254 22.068 274.641 1.201 223.16 1.201c-35.812 0-69.301 10.129-97.758 27.687a187.52 187.52 0 0 0-51.73 47.375c-5.984 8.004 6.937 17.871 13.023 9.723a171.322 171.322 0 0 1 47.25-43.262c25.907-15.976 56.461-25.199 89.215-25.199 46.977 0 89.504 19.039 120.289 49.824s49.824 73.317 49.824 120.293c0 38.051-12.468 73.168-33.535 101.481-15.676 21.066-36.121 38.382-59.746 50.351v.004zm-25.785 11.004c4.414 0 8 3.582 8 8s-3.586 8-8 8a8 8 0 0 1 0-16zM63.535 99.916a8 8 0 1 0 0 16 8 8 0 0 0 0-16zm271.246 131.875a8.163 8.163 0 1 1-16.324 0v-35.989h-42.008v-.035a8.08 8.08 0 0 1-5.195-1.875 8.132 8.132 0 0 1-1.051-11.449l49.692-59.629a8.138 8.138 0 0 1 6.722-3.539 8.163 8.163 0 0 1 8.164 8.164v52.039h9.899a8.162 8.162 0 1 1 0 16.324h-9.899v35.989zm-16.324-52.309h-24.621l24.621-29.551v29.551zm-118.133-19.934a23.89 23.89 0 0 1 7.012-16.937 23.89 23.89 0 0 1 16.934-7.012 23.89 23.89 0 0 1 16.933 7.012 23.873 23.873 0 0 1 7.012 16.937c0 6.317-2.414 10.918-6.449 14.75-4.813 4.567-12.145 8.497-20.618 12.719-20.507 10.235-36.179 40.953-36.222 41.043-2.059 3.996-.492 8.91 3.504 10.969a8.134 8.134 0 0 0 3.734.906v.02h64.215c4.504 0 8.16-3.657 8.16-8.164 0-4.508-3.656-8.164-8.16-8.164h-49.828c5.363-7.946 13.25-17.704 21.871-22.004 9.644-4.809 18.109-9.403 24.566-15.528 7.227-6.863 11.551-15.136 11.551-26.547 0-11.121-4.504-21.187-11.797-28.476-7.285-7.289-17.351-11.797-28.472-11.797-11.122 0-21.184 4.508-28.473 11.797-7.289 7.289-11.797 17.355-11.797 28.476a8.163 8.163 0 0 0 16.324 0zm-34.297 226.567c31.325 10.515 60.481 8.824 80.039-7.567l.036-.031c.078-.062-.86-2.644-2.442-6.773-6.758-17.645-25.898-36.762-40.379-47.778-6.453-4.91-12.156-7.91-12.617-7.527-10.945 9.184-22.66 11.449-35.894 10.289-13.25-1.16-26.071-7.355-35.262-18.312l-33.242-39.614c-9.184-10.945-13.055-24.632-11.899-37.867 1.16-13.246 6.363-25.215 17.321-34.406-4.446-13.777-22.852-39.012-26.059-42.828-6.844-8.153-14.043-14.496-20.152-18.16-3.625-2.176-5.969-3.52-6.243-3.555a9.901 9.901 0 0 1-.32.254c-19.305 16.433-25.945 44.715-21.062 77.23 5.121 34.075 22.796 72.446 51.82 107.032l.004.003c29.019 34.59 63.715 58.653 96.351 69.61zm0 0" fill-rule="evenodd" clip-rule="evenodd" fill="url(#a)"/>
</svg>
