<svg xmlns="http://www.w3.org/2000/svg" viewBox="-49 141 512 512">
    <linearGradient id="a" gradientUnits="userSpaceOnUse" x1="95" y1="397" x2="319" y2="397">
        <stop offset="0" stop-color="#ff7f00"/>
        <stop offset="1" stop-color="#fdc355"/>
    </linearGradient>
    <path d="M319 397c0-61.856-50.144-112-112-112S95 335.144 95 397s50.144 112 112 112c61.828-.066 111.934-50.172 112-112zm-112 96c-11.536 0-23.84-14.704-31.72-38.96 10.264-.664 20.888-1.04 31.72-1.04s21.456.376 31.72 1.04C230.84 478.296 218.536 493 207 493zm0-56c-12.248 0-24.304.432-35.88 1.272A196.763 196.763 0 0 1 167.184 405h79.632a196.661 196.661 0 0 1-3.936 33.272C231.304 437.432 219.248 437 207 437zm0-136c11.536 0 23.84 14.704 31.72 38.96-10.264.664-20.888 1.04-31.72 1.04s-21.456-.376-31.72-1.04C183.16 315.704 195.464 301 207 301zm0 56c12.248 0 24.304-.432 35.88-1.272A196.661 196.661 0 0 1 246.816 389h-79.632a196.661 196.661 0 0 1 3.936-33.272c11.576.84 23.632 1.272 35.88 1.272zm55.808 32a213.916 213.916 0 0 0-3.92-34.752c11.2-1.224 21.76-2.856 31.36-4.856A95.015 95.015 0 0 1 302.592 389h-39.784zm-111.616 0h-39.784a95.03 95.03 0 0 1 12.344-39.608c9.6 2 20.144 3.632 31.36 4.856a213.916 213.916 0 0 0-3.92 34.752zm0 16a213.916 213.916 0 0 0 3.92 34.752c-11.2 1.224-21.76 2.856-31.36 4.856A95.03 95.03 0 0 1 111.408 405h39.784zm111.616 0h39.784a95.03 95.03 0 0 1-12.344 39.608c-9.6-2-20.144-3.632-31.36-4.856a213.916 213.916 0 0 0 3.92-34.752zm17.408-69.944c-7.888 1.424-16.352 2.616-25.264 3.544a117.343 117.343 0 0 0-14.16-31.344 96.24 96.24 0 0 1 39.424 27.8zm-107.008-27.8a117.343 117.343 0 0 0-14.16 31.344c-8.912-.928-17.376-2.12-25.264-3.544a96.24 96.24 0 0 1 39.424-27.8zm-39.424 151.688c7.888-1.424 16.352-2.616 25.264-3.544a117.343 117.343 0 0 0 14.16 31.344 96.24 96.24 0 0 1-39.424-27.8zm107.008 27.8a117.343 117.343 0 0 0 14.16-31.344c8.912.928 17.376 2.12 25.264 3.544a96.24 96.24 0 0 1-39.424 27.8z" fill="url(#a)"/>
    <linearGradient id="b" gradientUnits="userSpaceOnUse" x1="-33" y1="213" x2="63" y2="213">
        <stop offset="0" stop-color="#ff7f00"/>
        <stop offset="1" stop-color="#fdc355"/>
    </linearGradient>
    <path d="M-25 237H7v16h-32v16h80v-16H23v-16h32a8 8 0 0 0 8-8v-64a8 8 0 0 0-8-8h-80a8 8 0 0 0-8 8v64a8 8 0 0 0 8 8zm8-64h64v48h-64v-48z" fill="url(#b)"/>
    <linearGradient id="c" gradientUnits="userSpaceOnUse" x1="351" y1="213" x2="447" y2="213">
        <stop offset="0" stop-color="#ff7f00"/>
        <stop offset="1" stop-color="#fdc355"/>
    </linearGradient>
    <path d="M439 157h-80a8 8 0 0 0-8 8v64a8 8 0 0 0 8 8h32v16h-32v16h80v-16h-32v-16h32a8 8 0 0 0 8-8v-64a8 8 0 0 0-8-8zm-8 64h-64v-48h64v48z" fill="url(#c)"/>
    <linearGradient id="d" gradientUnits="userSpaceOnUse" x1="-33" y1="581" x2="63" y2="581">
        <stop offset="0" stop-color="#ff7f00"/>
        <stop offset="1" stop-color="#fdc355"/>
    </linearGradient>
    <path d="M63 621H23v-16h32a8 8 0 0 0 8-8v-64a8 8 0 0 0-8-8h-80a8 8 0 0 0-8 8v64a8 8 0 0 0 8 8H7v16h-40v16h96v-16zm-80-80h64v48h-64v-48z" fill="url(#d)"/>
    <linearGradient id="e" gradientUnits="userSpaceOnUse" x1="351" y1="581" x2="447" y2="581">
        <stop offset="0" stop-color="#ff7f00"/>
        <stop offset="1" stop-color="#fdc355"/>
    </linearGradient>
    <path d="M439 525h-80a8 8 0 0 0-8 8v64a8 8 0 0 0 8 8h32v16h-40v16h96v-16h-40v-16h32a8 8 0 0 0 8-8v-64a8 8 0 0 0-8-8zm-8 64h-64v-48h64v48z" fill="url(#e)"/>
    <linearGradient id="f" gradientUnits="userSpaceOnUse" x1="63.416" y1="280.036" x2="116.688" y2="280.036">
        <stop offset="0" stop-color="#ff7f00"/>
        <stop offset="1" stop-color="#fdc355"/>
    </linearGradient>
    <path d="M100.472 253.416l-24 8a7.918 7.918 0 0 0-5.056 5.056l-8 24 15.2 5.056 3.912-11.72 22.848 22.848 11.312-11.312-22.848-22.848 11.72-3.912-5.088-15.168z" fill="url(#f)"/>
    <linearGradient id="g" gradientUnits="userSpaceOnUse" x1="297.344" y1="280.052" x2="350.616" y2="280.052">
        <stop offset="0" stop-color="#ff7f00"/>
        <stop offset="1" stop-color="#fdc355"/>
    </linearGradient>
    <path d="M337.528 261.416l-24-8-5.056 15.2 11.72 3.912-22.848 22.848 11.312 11.312 22.848-22.848 3.912 11.72 15.2-5.056-8-24a7.92 7.92 0 0 0-5.088-5.088z" fill="url(#g)"/>
    <linearGradient id="h" gradientUnits="userSpaceOnUse" x1="63.384" y1="513.964" x2="116.624" y2="513.964">
        <stop offset="0" stop-color="#ff7f00"/>
        <stop offset="1" stop-color="#fdc355"/>
    </linearGradient>
    <path d="M105.344 487.344l-22.848 22.848-3.912-11.72-15.2 5.056 8 24a7.918 7.918 0 0 0 5.056 5.056l24 8 5.056-15.2-11.72-3.912 22.848-22.848-11.28-11.28z" fill="url(#h)"/>
    <linearGradient id="i" gradientUnits="userSpaceOnUse" x1="297.312" y1="513.964" x2="350.584" y2="513.964">
        <stop offset="0" stop-color="#ff7f00"/>
        <stop offset="1" stop-color="#fdc355"/>
    </linearGradient>
    <path d="M313.528 540.584l24-8a7.918 7.918 0 0 0 5.056-5.056l8-24-15.2-5.056-3.912 11.72-22.848-22.848-11.312 11.312 22.848 22.848-11.72 3.912 5.088 15.168z" fill="url(#i)"/>
    <linearGradient id="j" gradientUnits="userSpaceOnUse" x1="199" y1="221" x2="215" y2="221">
        <stop offset="0" stop-color="#ff7f00"/>
        <stop offset="1" stop-color="#fdc355"/>
    </linearGradient>
    <path fill="url(#j)" d="M199 189h16v64h-16z"/>
    <linearGradient id="k" gradientUnits="userSpaceOnUse" x1="199" y1="165" x2="215" y2="165">
        <stop offset="0" stop-color="#ff7f00"/>
        <stop offset="1" stop-color="#fdc355"/>
    </linearGradient>
    <path fill="url(#k)" d="M199 157h16v16h-16z"/>
    <linearGradient id="l" gradientUnits="userSpaceOnUse" x1="233.342" y1="260.997" x2="260.653" y2="260.997">
        <stop offset="0" stop-color="#ff7f00"/>
        <stop offset="1" stop-color="#fdc355"/>
    </linearGradient>
    <path fill="url(#l)" d="M233.342 263.339l15.998-15.998 11.313 11.314-15.997 15.997z"/>
    <linearGradient id="m" gradientUnits="userSpaceOnUse" x1="153.349" y1="260.997" x2="180.661" y2="260.997">
        <stop offset="0" stop-color="#ff7f00"/>
        <stop offset="1" stop-color="#fdc355"/>
    </linearGradient>
    <path fill="url(#m)" d="M153.349 258.655l11.314-11.313 15.998 15.997-11.314 11.314z"/>
    <linearGradient id="n" gradientUnits="userSpaceOnUse" x1="199" y1="573" x2="215" y2="573">
        <stop offset="0" stop-color="#ff7f00"/>
        <stop offset="1" stop-color="#fdc355"/>
    </linearGradient>
    <path fill="url(#n)" d="M199 541h16v64h-16z"/>
    <linearGradient id="o" gradientUnits="userSpaceOnUse" x1="199" y1="629" x2="215" y2="629">
        <stop offset="0" stop-color="#ff7f00"/>
        <stop offset="1" stop-color="#fdc355"/>
    </linearGradient>
    <path fill="url(#o)" d="M199 621h16v16h-16z"/>
    <linearGradient id="p" gradientUnits="userSpaceOnUse" x1="233.348" y1="533.003" x2="260.659" y2="533.003">
        <stop offset="0" stop-color="#ff7f00"/>
        <stop offset="1" stop-color="#fdc355"/>
    </linearGradient>
    <path fill="url(#p)" d="M233.348 530.661l11.314-11.314 15.997 15.997-11.313 11.314z"/>
    <linearGradient id="q" gradientUnits="userSpaceOnUse" x1="157.35" y1="530.996" x2="180.662" y2="530.996">
        <stop offset="0" stop-color="#ff7f00"/>
        <stop offset="1" stop-color="#fdc355"/>
    </linearGradient>
    <path fill="url(#q)" d="M157.35 531.338l11.998-11.998 11.314 11.314-11.999 11.998z"/>
    <linearGradient id="r" gradientUnits="userSpaceOnUse" x1="351" y1="397" x2="415" y2="397">
        <stop offset="0" stop-color="#ff7f00"/>
        <stop offset="1" stop-color="#fdc355"/>
    </linearGradient>
    <path fill="url(#r)" d="M351 389h64v16h-64z"/>
    <linearGradient id="s" gradientUnits="userSpaceOnUse" x1="431" y1="397" x2="447" y2="397">
        <stop offset="0" stop-color="#ff7f00"/>
        <stop offset="1" stop-color="#fdc355"/>
    </linearGradient>
    <path fill="url(#s)" d="M431 389h16v16h-16z"/>
    <linearGradient id="t" gradientUnits="userSpaceOnUse" x1="329.347" y1="356.997" x2="356.659" y2="356.997">
        <stop offset="0" stop-color="#ff7f00"/>
        <stop offset="1" stop-color="#fdc355"/>
    </linearGradient>
    <path fill="url(#t)" d="M329.347 359.339l15.998-15.998 11.314 11.314-15.998 15.997z"/>
    <linearGradient id="u" gradientUnits="userSpaceOnUse" x1="329.348" y1="436.957" x2="356.659" y2="436.957">
        <stop offset="0" stop-color="#ff7f00"/>
        <stop offset="1" stop-color="#fdc355"/>
    </linearGradient>
    <path fill="url(#u)" d="M329.348 434.615l11.314-11.313 15.997 15.997-11.313 11.314z"/>
    <linearGradient id="v" gradientUnits="userSpaceOnUse" x1="-1" y1="397" x2="63" y2="397">
        <stop offset="0" stop-color="#ff7f00"/>
        <stop offset="1" stop-color="#fdc355"/>
    </linearGradient>
    <path fill="url(#v)" d="M-1 389h64v16H-1z"/>
    <linearGradient id="w" gradientUnits="userSpaceOnUse" x1="-33" y1="397" x2="-17" y2="397">
        <stop offset="0" stop-color="#ff7f00"/>
        <stop offset="1" stop-color="#fdc355"/>
    </linearGradient>
    <path fill="url(#w)" d="M-33 389h16v16h-16z"/>
    <linearGradient id="x" gradientUnits="userSpaceOnUse" x1="57.349" y1="357.003" x2="84.661" y2="357.003">
        <stop offset="0" stop-color="#ff7f00"/>
        <stop offset="1" stop-color="#fdc355"/>
    </linearGradient>
    <path fill="url(#x)" d="M57.349 354.661l11.314-11.314 15.998 15.998-11.314 11.313z"/>
    <linearGradient id="y" gradientUnits="userSpaceOnUse" x1="57.342" y1="437.003" x2="84.653" y2="437.003">
        <stop offset="0" stop-color="#ff7f00"/>
        <stop offset="1" stop-color="#fdc355"/>
    </linearGradient>
    <path fill="url(#y)" d="M57.342 439.345l15.998-15.997 11.313 11.313-15.997 15.998z"/>
</svg>
