<svg id="Layer_1" xmlns="http://www.w3.org/2000/svg" viewBox="0 0 118.82 51.1">
    <style>
        .st0{fill:#f1bf61}
    </style>
    <path class="st0" d="M81.24 22.56h5.54l1.96-5.58c4.03-.79 7.5-1.95 10.42-3.48 4.37-2.27 6.56-4.98 6.56-8.15 0-2.13-.9-3.61-2.71-4.46C101.73.3 99.89 0 97.47 0H12.96l-.87 2.33H3.81L0 8.56h25.93c3.87 0 5.81 4.27 5.81 6.81 0 1.8-.79 3.38-2.37 4.75-.94.83-2.42 1.72-4.45 2.7-1.47.69-2.37 1.4-2.7 2.13-.03.1-.05.26-.05.49 0 .46.33 1.2.99 2.21.66 1.01.99 1.88.99 2.61 0 2.28-1.48 3.92-4.43 4.92-2 .66-4.44.99-7.32.99h-1.26l7.59-21.42h-8.9L.91 40.13h12.86c4.52 0 8.47-.63 11.87-1.88 4.75-1.76 7.12-4.48 7.12-8.16 0-1.78-.63-3.77-1.9-5.96 3.13-1.53 5.46-2.93 7-4.2 2.56-2.11 3.83-7.38 3.83-9.8 0-.55-.06-1.07-.14-1.56h17.08c3.87 0 5.81 4.27 5.81 6.81 0 1.8-.79 3.38-2.37 4.75-.94.83-2.42 1.72-4.45 2.7-1.47.69-2.37 1.4-2.7 2.13-.03.1-.05.26-.05.49 0 .46.33 1.2.99 2.21.66 1.01.99 1.88.99 2.61 0 2.28-1.48 3.92-4.43 4.92-2 .66-4.44.99-7.32.99h-1.26l7.59-21.42h-8.9L33.6 40.13h12.86c4.52 0 8.47-.63 11.87-1.88 4.75-1.76 7.12-4.48 7.12-8.16 0-1.78-.63-3.77-1.9-5.96 3.13-1.53 5.47-2.93 7-4.2 2.56-2.11 3.83-7.38 3.83-9.8 0-2.79-1.08-4.82-3.21-6.08h23.67c1.34 0 2.26.11 2.77.34.85.38 1.26 1.16 1.2 2.36-.09 1.86-1.25 3.49-3.48 4.89-1.6.99-3.44 1.73-5.52 2.2l2.76-7.71h-7.8l-2.16 5.19h-5.55l-4.63 13.01h-4.65c-.26.61-.4 1.2-.4 1.78 0 .94.33 1.77.99 2.5.58.66 1.29 1.11 2.13 1.34l-6.26 17.68c-.12.3-.17.58-.17.87 0 .71.26 1.32.79 1.83s1.13.77 1.81.79c3.54.1 7.25-1.33 11.1-4.28 4.29-3.26 6.51-6.98 6.68-11.15.13-3.53-.56-5.99-2.08-7.39h26.45c3.73 0 5.85-1.32 6.38-3.96H80.5l.74-1.78zm-4.07 16.92c-.43 1.26-1.36 2.7-2.79 4.32-1.47 1.68-2.87 2.87-4.2 3.56 2.87-6.33 4.98-11.08 6.33-14.24.87.68 1.31 1.69 1.31 3.04-.01.95-.22 2.06-.65 3.32zm31.01-22.88c-1.26 0-2.26.26-3.02.78-.71.49-1.14 1.17-1.29 2.03-.03.15-.04.31-.04.46 0 .45.12.84.33 1.18h-1.92l1.56-4.46h-4.74l.72-2.09H98.4c-.7 0-1.31.15-1.82.45-.61.36-.92.87-.92 1.53 0 .36.11.68.33.96.22.28.51.46.86.54l-.56 1.86c.44-.06.95-.29 1.41-.58.57-.35.92-1.29.92-1.29h1.83l-.97 2.79c-.07.21-.11.41-.11.59 0 .72.43 1.08 1.3 1.08h3.28c.42 0 .83-.12 1.22-.36.02-.01.04-.03.06-.05.69.36 1.57.55 2.68.54 1.16-.01 2.1-.27 2.83-.79.76-.54 1.18-1.29 1.26-2.25.02-.25-.03-.54-.15-.87-.12-.33-.27-.56-.46-.69h5.37c1.14 0 1.83-.46 2.06-1.37h-10.64zm.16 4.62c-.08.01-.17.01-.28.01-.91 0-1.37-.25-1.37-.74 0-.1.02-.21.06-.33l.77-2.19h1.96l-1.14 3.25z"/>
</svg>
