<svg xmlns="http://www.w3.org/2000/svg" viewBox="0 0 512 414.176">
    <linearGradient id="a" gradientUnits="userSpaceOnUse" x1="176.445" y1="112.426" x2="512" y2="112.426">
        <stop offset="0" stop-color="#de8244"/>
        <stop offset="1" stop-color="#f1c062"/>
    </linearGradient>
    <path d="M502 0H186.445c-5.519 0-10 4.477-10 10v204.852c0 5.519 4.481 10 10 10H502c5.523 0 10-4.481 10-10V10c0-5.523-4.477-10-10-10zm-10 20v42.926c-21.695-4.09-38.84-21.235-42.93-42.926H492zm0 63.18v58.488c-32.742 4.449-58.734 30.441-63.184 63.18H259.633c-4.453-32.739-30.445-58.731-63.188-63.18V83.18c32.743-4.45 58.735-30.438 63.188-63.18h169.183c4.45 32.742 30.442 58.73 63.184 63.18zM196.445 20h42.93c-4.09 21.691-21.234 38.836-42.93 42.926V20zm0 184.848v-42.922c21.696 4.09 38.84 21.23 42.93 42.922h-42.93zm295.555 0h-42.93c4.09-21.692 21.235-38.832 42.93-42.922v42.922zm0 0" fill="url(#a)"/>
    <linearGradient id="b" gradientUnits="userSpaceOnUse" x1="259.766" y1="112.424" x2="428.684" y2="112.424">
        <stop offset="0" stop-color="#de8244"/>
        <stop offset="1" stop-color="#f1c062"/>
    </linearGradient>
    <path d="M344.223 196.879c-46.571 0-84.457-37.887-84.457-84.453 0-46.571 37.886-84.457 84.457-84.457 46.574 0 84.461 37.886 84.461 84.457 0 46.566-37.891 84.453-84.461 84.453zm0-148.91c-35.543 0-64.457 28.914-64.457 64.457 0 35.539 28.914 64.453 64.457 64.453s64.461-28.914 64.461-64.453-28.918-64.457-64.461-64.457zm0 0" fill="url(#b)"/>
    <linearGradient id="c" gradientUnits="userSpaceOnUse" x1="297.664" y1="112.424" x2="390.785" y2="112.424">
        <stop offset="0" stop-color="#de8244"/>
        <stop offset="1" stop-color="#f1c062"/>
    </linearGradient>
    <path d="M344.223 158.984c-25.672 0-46.559-20.886-46.559-46.558 0-25.676 20.887-46.563 46.559-46.563 25.675 0 46.562 20.887 46.562 46.563 0 5.519-4.476 10-10 10-5.523 0-10-4.481-10-10 0-14.649-11.914-26.563-26.562-26.563-14.645 0-26.559 11.918-26.559 26.563 0 14.64 11.914 26.558 26.559 26.558 5.523 0 10 4.477 10 10 0 5.524-4.477 10-10 10zm0 0" fill="url(#c)"/>
    <linearGradient id="d" gradientUnits="userSpaceOnUse" x1="131.07" y1="335.353" x2="151.07" y2="335.353">
        <stop offset="0" stop-color="#de8244"/>
        <stop offset="1" stop-color="#f1c062"/>
    </linearGradient>
    <path d="M141.07 345.355a10.056 10.056 0 0 1-3.82-.769 10.186 10.186 0 0 1-1.73-.918 9.474 9.474 0 0 1-1.52-1.242 9.278 9.278 0 0 1-1.238-1.52 9.896 9.896 0 0 1-.922-1.73 9.965 9.965 0 0 1-.57-1.867 9.951 9.951 0 0 1-.2-1.954 10.083 10.083 0 0 1 1.692-5.546 9.48 9.48 0 0 1 1.238-1.524c.461-.457.969-.879 1.52-1.25a10.186 10.186 0 0 1 3.601-1.488 9.823 9.823 0 0 1 3.91 0 10.18 10.18 0 0 1 3.59 1.488c.551.371 1.059.793 1.52 1.25a10.127 10.127 0 0 1 2.171 3.242c.25.61.438 1.239.571 1.871.129.649.187 1.309.187 1.957 0 .653-.058 1.313-.187 1.954a10.353 10.353 0 0 1-.571 1.867c-.25.601-.562 1.191-.921 1.73a9.614 9.614 0 0 1-1.25 1.52 9.474 9.474 0 0 1-1.52 1.242 10.18 10.18 0 0 1-3.59 1.488c-.652.129-1.301.199-1.961.199zm0 0" fill="url(#d)"/>
    <linearGradient id="e" gradientUnits="userSpaceOnUse" y1="319.993" x2="466.526" y2="319.993">
        <stop offset="0" stop-color="#de8244"/>
        <stop offset="1" stop-color="#f1c062"/>
    </linearGradient>
    <path d="M461.773 263.977c-11.164-19.438-36.085-26.207-55.703-15.2l-73.707 35.785c-6.621-15.914-22.332-27.136-40.617-27.136h-80.031c-13.883-19.633-36.735-31.617-60.949-31.617-.852 0-1.7.015-2.543.043-30.524 1.027-56.809 21.992-65.352 51.554H79.27v-6.043c0-5.523-4.477-10-10-10H10c-5.523 0-10 4.477-10 10v121.199c0 5.524 4.477 10 10 10h59.27c5.523 0 10-4.476 10-10v-7.332c38.253 7.243 156.234 28.946 196.23 28.946 21.574 0 56.262-15.711 106.039-48.035 35.688-23.168 66.055-46.672 66.356-46.907.332-.257.644-.535.941-.828 17.559-17.554 22.398-37.898 12.937-54.429zM59.27 382.562H20V281.363h39.27v101.199zm375.851-78.734c-32.996 25.527-124.437 90.348-159.621 90.348-39.152 0-163.262-23.051-196.23-29.309v-67.461h11.468a9.996 9.996 0 0 0 9.754-7.804l.797-3.543c5.156-22.911 24.731-39.45 47.602-40.219.621-.02 1.246-.031 1.875-.031 19.144 0 37.132 10.242 46.933 26.726a10.01 10.01 0 0 0 8.598 4.891h85.449c13.215 0 23.965 10.75 23.965 23.965 0 13.211-10.75 23.961-23.965 23.961H178.367c-5.523 0-10 4.476-10 10 0 5.523 4.477 10 10 10h113.379c22.942 0 41.832-17.661 43.797-40.098l79.547-38.625c.207-.098.406-.203.601-.317 10.11-5.789 23-2.367 28.731 7.61 6.594 11.519-3.953 24.449-9.301 29.906zm0 0" fill="url(#e)"/>
</svg>
